<svg width="72" height="63" viewBox="0 0 72 63" fill="none" xmlns="http://www.w3.org/2000/svg">
<path d="M52.1249 5.00001C53.9451 4.99847 55.7473 5.36033 57.4258 6.06436C59.1044 6.7684 60.6255 7.80045 61.8999 9.10001C64.526 11.766 65.9979 15.3579 65.9979 19.1C65.9979 22.8421 64.526 26.4341 61.8999 29.1L35.9999 55.325L10.0999 29.1C7.47388 26.4341 6.0019 22.8421 6.0019 19.1C6.0019 15.3579 7.47388 11.766 10.0999 9.10001C11.3752 7.80138 12.8964 6.76988 14.5747 6.06574C16.253 5.36159 18.0549 4.99893 19.8749 4.99893C21.695 4.99893 23.4968 5.36159 25.1751 6.06574C26.8535 6.76988 28.3747 7.80138 29.6499 9.10001L35.9999 15.6L42.3249 9.15001C43.5955 7.83496 45.1183 6.78966 46.8021 6.0766C48.486 5.36355 50.2963 4.99738 52.1249 5.00001ZM52.1249 6.70713e-06C49.639 -0.00210009 47.1776 0.492145 44.8852 1.45376C42.5928 2.41538 40.5154 3.82501 38.7749 5.60001L35.9999 8.40001L33.2249 5.60001C31.4823 3.82821 29.4044 2.42103 27.1124 1.46048C24.8204 0.499936 22.3601 0.00524357 19.8749 0.00524357C17.3898 0.00524357 14.9295 0.499936 12.6375 1.46048C10.3454 2.42103 8.26755 3.82821 6.52493 5.60001C2.97962 9.20907 0.993164 14.0659 0.993164 19.125C0.993164 24.1841 2.97962 29.0409 6.52493 32.65L35.9999 62.5L65.4749 32.65C69.0202 29.0409 71.0067 24.1841 71.0067 19.125C71.0067 14.0659 69.0202 9.20907 65.4749 5.60001C63.7327 3.82727 61.655 2.41911 59.363 1.45766C57.071 0.496205 54.6104 0.000690245 52.1249 6.70713e-06Z" fill="#DBEEF0"/>
</svg>
