<svg width="17" height="16" viewBox="0 0 17 16" fill="none" xmlns="http://www.w3.org/2000/svg">
<path d="M11.6416 3C12.0057 2.99969 12.3661 3.07207 12.7018 3.21287C13.0375 3.35368 13.3417 3.56009 13.5966 3.82C14.1218 4.35319 14.4162 5.07158 14.4162 5.82C14.4162 6.56842 14.1218 7.28681 13.5966 7.82L8.41664 13.065L3.23664 7.82C2.71143 7.28681 2.41703 6.56842 2.41703 5.82C2.41703 5.07158 2.71143 4.35319 3.23664 3.82C3.49168 3.56028 3.79592 3.35398 4.13159 3.21315C4.46726 3.07232 4.82762 2.99979 5.19164 2.99979C5.55565 2.99979 5.91601 3.07232 6.25168 3.21315C6.58735 3.35398 6.89159 3.56028 7.14664 3.82L8.41664 5.12L9.68164 3.83C9.93576 3.56699 10.2403 3.35793 10.5771 3.21532C10.9138 3.07271 11.2759 2.99948 11.6416 3ZM11.6416 2C11.1444 1.99958 10.6522 2.09843 10.1937 2.29075C9.73521 2.48308 9.31973 2.765 8.97164 3.12L8.41664 3.68L7.86164 3.12C7.51311 2.76564 7.09753 2.48421 6.63913 2.2921C6.18073 2.09999 5.68867 2.00105 5.19164 2.00105C4.6946 2.00105 4.20255 2.09999 3.74414 2.2921C3.28574 2.48421 2.87016 2.76564 2.52164 3.12C1.81257 3.84181 1.41528 4.81318 1.41528 5.825C1.41528 6.83682 1.81257 7.80819 2.52164 8.53L8.41664 14.5L14.3116 8.53C15.0207 7.80819 15.418 6.83682 15.418 5.825C15.418 4.81318 15.0207 3.84181 14.3116 3.12C13.9632 2.76545 13.5477 2.48382 13.0893 2.29153C12.6308 2.09924 12.1387 2.00014 11.6416 2Z" fill="#21B2A6"/>
</svg>
