<svg width="16" height="16" viewBox="0 0 16 16" fill="none" xmlns="http://www.w3.org/2000/svg">
<path d="M8.306 1.10674C8.21728 1.03756 8.108 1 7.9955 1C7.883 1 7.77372 1.03756 7.685 1.10674L0.5 6.70924L1.1215 7.49524L2 6.81024V12.9997C2.00053 13.2648 2.10606 13.5188 2.29348 13.7063C2.4809 13.8937 2.73495 13.9992 3 13.9997H13C13.2651 13.9992 13.5191 13.8937 13.7065 13.7063C13.8939 13.5188 13.9995 13.2648 14 12.9997V6.81474L14.8785 7.49974L15.5 6.71374L8.306 1.10674ZM9 12.9997H7V8.99974H9V12.9997ZM10 12.9997V8.99974C9.99973 8.7346 9.89429 8.4804 9.70681 8.29292C9.51934 8.10544 9.26513 8 9 7.99974H7C6.73486 8 6.48066 8.10544 6.29319 8.29292C6.10571 8.4804 6.00026 8.7346 6 8.99974V12.9997H3V6.03074L8 2.13574L13 6.03574V12.9997H10Z" fill="#21B2A6"/>
</svg>
