<svg width="24" height="24" viewBox="0 0 24 24" fill="none" xmlns="http://www.w3.org/2000/svg">
<path d="M12 7.42156C9.46654 7.42156 7.42189 9.46621 7.42189 11.9997C7.42189 14.5332 9.46654 16.5778 12 16.5778C14.5335 16.5778 16.5781 14.5332 16.5781 11.9997C16.5781 9.46621 14.5335 7.42156 12 7.42156ZM12 14.9751C10.3616 14.9751 9.02457 13.6381 9.02457 11.9997C9.02457 10.3613 10.3616 9.02424 12 9.02424C13.6384 9.02424 14.9755 10.3613 14.9755 11.9997C14.9755 13.6381 13.6384 14.9751 12 14.9751ZM16.7656 6.1671C16.1741 6.1671 15.6964 6.64478 15.6964 7.23629C15.6964 7.82781 16.1741 8.30549 16.7656 8.30549C17.3572 8.30549 17.8348 7.83004 17.8348 7.23629C17.835 7.09584 17.8075 6.95672 17.7538 6.82692C17.7001 6.69712 17.6214 6.57918 17.5221 6.47987C17.4228 6.38055 17.3048 6.3018 17.175 6.24813C17.0452 6.19446 16.9061 6.16692 16.7656 6.1671ZM20.9241 11.9997C20.9241 10.7675 20.9353 9.54656 20.8661 8.31665C20.7969 6.88808 20.471 5.62022 19.4264 4.57558C18.3795 3.52871 17.1139 3.20504 15.6853 3.13585C14.4531 3.06665 13.2322 3.07781 12.0022 3.07781C10.7701 3.07781 9.54913 3.06665 8.31921 3.13585C6.89064 3.20504 5.62279 3.53094 4.57814 4.57558C3.53127 5.62246 3.20761 6.88808 3.13841 8.31665C3.06922 9.54879 3.08038 10.7698 3.08038 11.9997C3.08038 13.2296 3.06922 14.4528 3.13841 15.6827C3.20761 17.1113 3.5335 18.3792 4.57814 19.4238C5.62502 20.4707 6.89064 20.7943 8.31921 20.8635C9.55136 20.9327 10.7723 20.9216 12.0022 20.9216C13.2344 20.9216 14.4554 20.9327 15.6853 20.8635C17.1139 20.7943 18.3817 20.4684 19.4264 19.4238C20.4732 18.3769 20.7969 17.1113 20.8661 15.6827C20.9375 14.4528 20.9241 13.2318 20.9241 11.9997ZM18.9598 17.2631C18.7969 17.6693 18.6005 17.9729 18.2857 18.2854C17.971 18.6001 17.6697 18.7966 17.2634 18.9595C16.0893 19.426 13.3014 19.3211 12 19.3211C10.6987 19.3211 7.9085 19.426 6.73439 18.9617C6.32814 18.7988 6.02457 18.6024 5.71207 18.2876C5.39734 17.9729 5.20091 17.6716 5.03797 17.2653C4.57368 16.089 4.67859 13.301 4.67859 11.9997C4.67859 10.6983 4.57368 7.90817 5.03797 6.73406C5.20091 6.32781 5.39734 6.02424 5.71207 5.71174C6.0268 5.39924 6.32814 5.20058 6.73439 5.03763C7.9085 4.57335 10.6987 4.67826 12 4.67826C13.3014 4.67826 16.0915 4.57335 17.2656 5.03763C17.6719 5.20058 17.9755 5.39701 18.288 5.71174C18.6027 6.02647 18.7991 6.32781 18.9621 6.73406C19.4264 7.90817 19.3214 10.6983 19.3214 11.9997C19.3214 13.301 19.4264 16.089 18.9598 17.2631Z" fill="#21B2A6"/>
</svg>
