<svg width="24" height="24" viewBox="0 0 24 24" fill="none" xmlns="http://www.w3.org/2000/svg">
<path d="M5.31709 7.42543C6.46794 7.42543 7.40089 6.49248 7.40089 5.34162C7.40089 4.19077 6.46794 3.25781 5.31709 3.25781C4.16623 3.25781 3.23328 4.19077 3.23328 5.34162C3.23328 6.49248 4.16623 7.42543 5.31709 7.42543Z" fill="#21B2A6"/>
<path d="M9.36857 9.00446V20.5654H12.9581V14.8483C12.9581 13.3397 13.2419 11.8787 15.1124 11.8787C16.9571 11.8787 16.98 13.6035 16.98 14.9435V20.5664H20.5714V14.2264C20.5714 11.1121 19.9009 8.71875 16.2609 8.71875C14.5133 8.71875 13.3419 9.6778 12.8629 10.5854H12.8143V9.00446H9.36857ZM3.51904 9.00446H7.11428V20.5654H3.51904V9.00446Z" fill="#21B2A6"/>
</svg>
