<svg width="32" height="32" viewBox="0 0 32 32" fill="none" xmlns="http://www.w3.org/2000/svg">
<path d="M26 30H6C5.46973 29.9995 4.96133 29.7886 4.58637 29.4136C4.21141 29.0387 4.00053 28.5303 4 28V4C4.00053 3.46973 4.21141 2.96133 4.58637 2.58637C4.96133 2.21141 5.46973 2.00053 6 2H26C26.5303 2.00053 27.0387 2.21141 27.4136 2.58637C27.7886 2.96133 27.9995 3.46973 28 4V28C27.9995 28.5303 27.7886 29.0387 27.4136 29.4136C27.0387 29.7886 26.5303 29.9995 26 30ZM6 4V28H26V4H6Z" fill="#21B2A6"/>
<path d="M22 20H10V18H22V20Z" fill="#21B2A6"/>
<path d="M20 25H12V23H20V25Z" fill="#21B2A6"/>
</svg>
