<svg width="17" height="16" viewBox="0 0 17 16" fill="none" xmlns="http://www.w3.org/2000/svg">
<path d="M13.9166 15H3.91663C3.65149 14.9997 3.39729 14.8943 3.20981 14.7068C3.02233 14.5193 2.91689 14.2651 2.91663 14V2C2.91689 1.73486 3.02233 1.48066 3.20981 1.29319C3.39729 1.10571 3.65149 1.00026 3.91663 1H13.9166C14.1818 1.00026 14.436 1.10571 14.6234 1.29319C14.8109 1.48066 14.9164 1.73486 14.9166 2V14C14.9164 14.2651 14.8109 14.5193 14.6234 14.7068C14.436 14.8943 14.1818 14.9997 13.9166 15ZM3.91663 2V14H13.9166V2H3.91663Z" fill="white"/>
<path d="M11.9166 10H5.91663V9H11.9166V10Z" fill="white"/>
<path d="M10.9166 12.5H6.91663V11.5H10.9166V12.5Z" fill="white"/>
</svg>
