<svg width="80" height="80" viewBox="0 0 80 80" fill="none" xmlns="http://www.w3.org/2000/svg">
<path d="M65 75H15C13.6743 74.9987 12.4033 74.4715 11.4659 73.5341C10.5285 72.5967 10.0013 71.3257 10 70V10C10.0013 8.67432 10.5285 7.40332 11.4659 6.46593C12.4033 5.52853 13.6743 5.00132 15 5H65C66.3257 5.00132 67.5967 5.52853 68.5341 6.46593C69.4715 7.40332 69.9987 8.67432 70 10V70C69.9987 71.3257 69.4715 72.5967 68.5341 73.5341C67.5967 74.4715 66.3257 74.9987 65 75ZM15 10V70H65V10H15Z" fill="#DBEEF0"/>
<path d="M55 50H25V45H55V50Z" fill="#DBEEF0"/>
<path d="M50 62.5H30V57.5H50V62.5Z" fill="#DBEEF0"/>
</svg>
