<svg width="220" height="32" viewBox="0 0 220 32" fill="none" xmlns="http://www.w3.org/2000/svg">
<path d="M29.9044 10.0828L23.6003 14.8419L15.2014 14.8464L0.232178 22.0754L22.7101 22.0574L38.676 10.0737L29.9044 10.0828Z" fill="#DBEEF0"/>
<path d="M29.8899 19.6777L23.6052 24.4053L15.2401 24.4143L0.232178 31.6614L22.715 31.6433L38.6808 19.6687L29.8899 19.6777Z" fill="#DBEEF0"/>
<path d="M203.192 23.7054L203.177 0.519287L192.64 0.528318L192.669 31.4446L219.429 31.4356V23.6964L203.192 23.7054Z" fill="#21B2A6"/>
<path d="M174.057 0C165.837 0.00903062 159.116 1.65712 159.126 10.3401V21.6058C159.141 30.1081 165.953 32.0045 173.984 32C182.214 31.9955 188.924 29.9862 188.924 21.3077L188.91 10.2768C188.91 2.2712 182.156 0 174.057 0ZM178.392 23.8589L169.673 23.8724L169.654 8.13659H178.382L178.392 23.8589Z" fill="#21B2A6"/>
<path d="M87.3572 0.419919C79.3066 0.42895 77.0085 3.82446 77.0278 9.73049V22.4998C77.0375 29.336 80.0517 31.7155 87.6717 31.6975L103.667 31.6839L104.189 31.1918L104.184 23.9582L87.5701 23.9718L87.5653 19.6416L100.681 19.628V12.4713L87.5653 12.4848V8.15464L104.175 8.13658V0.866935L103.691 0.410889L87.3572 0.419919Z" fill="#21B2A6"/>
<path d="M64.6084 0.623047L42.4449 0.636593L32.5558 7.96946L45.5123 7.94688L32.6719 17.411L45.5558 17.5374L26.6581 31.58L65.0777 31.5439C70.3416 31.5349 73.6847 30.5912 73.675 24.5677L73.6799 21.5741C73.6799 18.2282 72.2284 16.7472 68.3628 15.9977L68.3531 15.6274C70.5496 15.3655 73.6702 14.7876 73.6605 10.6245L73.6654 7.09349C73.6654 1.56223 69.8819 0.623047 64.6084 0.623047ZM63.1956 24.9741L54.4338 24.9831L54.4241 19.2126H63.1811L63.1956 24.9741ZM63.186 12.8731L54.4193 12.8776V7.15218L63.1811 7.14315L63.186 12.8731Z" fill="#21B2A6"/>
<path d="M141.409 0.0315233C138.337 0.0315233 133.886 0.654636 131.694 2.49688C129.478 0.753973 124.983 0.0450692 122.061 0.0450692C113.875 0.0450692 107.552 1.93698 107.561 10.5567L107.581 31.5213L118.113 31.5123L118.094 8.27196L126.285 8.26293L126.304 31.5032L136.842 31.4942L136.817 8.2539L144.955 8.24939L144.975 31.4852L155.507 31.4716L155.493 10.5161C155.478 2.10857 149.6 0.0224927 141.409 0.0315233Z" fill="#21B2A6"/>
<path d="M24.9889 0.510254L0 12.5526L22.565 12.5345L38.8986 0.510254H24.9889Z" fill="#DBEEF0"/>
</svg>
