<svg width="40" height="40" viewBox="0 0 40 40" fill="none" xmlns="http://www.w3.org/2000/svg">
<path d="M36.25 34.4825L26.81 25.0425C29.0785 22.3192 30.2097 18.8261 29.9684 15.2899C29.727 11.7537 28.1316 8.44676 25.5141 6.05692C22.8966 3.66707 19.4584 2.37837 15.915 2.45888C12.3715 2.53939 8.99546 3.98293 6.4892 6.4892C3.98293 8.99546 2.53939 12.3715 2.45888 15.915C2.37837 19.4584 3.66707 22.8966 6.05692 25.5141C8.44676 28.1316 11.7537 29.727 15.2899 29.9684C18.8261 30.2097 22.3192 29.0785 25.0425 26.81L34.4825 36.25L36.25 34.4825ZM5.00002 16.25C5.00002 14.025 5.65982 11.8499 6.89599 9.99986C8.13216 8.1498 9.88917 6.70786 11.9448 5.85638C14.0005 5.00489 16.2625 4.7821 18.4448 5.21619C20.6271 5.65027 22.6316 6.72173 24.205 8.29507C25.7783 9.86841 26.8498 11.873 27.2839 14.0553C27.7179 16.2375 27.4952 18.4995 26.6437 20.5552C25.7922 22.6109 24.3502 24.3679 22.5002 25.6041C20.6501 26.8402 18.4751 27.5 16.25 27.5C13.2674 27.4967 10.4078 26.3104 8.29873 24.2013C6.18966 22.0923 5.00333 19.2327 5.00002 16.25Z" fill="#2E3842"/>
</svg>
