<svg width="32" height="32" viewBox="0 0 32 32" fill="none" xmlns="http://www.w3.org/2000/svg">
<path d="M25 16V15C25 12.6131 24.0518 10.3239 22.364 8.63604C20.6761 6.94821 18.3869 6 16 6C13.6131 6 11.3239 6.94821 9.63604 8.63604C7.94821 10.3239 7 12.6131 7 15V16C5.67392 16 4.40215 16.5268 3.46447 17.4645C2.52678 18.4021 2 19.6739 2 21C2 22.3261 2.52678 23.5979 3.46447 24.5355C4.40215 25.4732 5.67392 26 7 26H9V15C9 13.1435 9.7375 11.363 11.0503 10.0503C12.363 8.7375 14.1435 8 16 8C17.8565 8 19.637 8.7375 20.9497 10.0503C22.2625 11.363 23 13.1435 23 15V26H25C26.3261 26 27.5979 25.4732 28.5355 24.5355C29.4732 23.5979 30 22.3261 30 21C30 19.6739 29.4732 18.4021 28.5355 17.4645C27.5979 16.5268 26.3261 16 25 16ZM4 21C4 20.2044 4.31607 19.4413 4.87868 18.8787C5.44129 18.3161 6.20435 18 7 18V24C6.20435 24 5.44129 23.6839 4.87868 23.1213C4.31607 22.5587 4 21.7956 4 21ZM25 24V18C25.7956 18 26.5587 18.3161 27.1213 18.8787C27.6839 19.4413 28 20.2044 28 21C28 21.7956 27.6839 22.5587 27.1213 23.1213C26.5587 23.6839 25.7956 24 25 24Z" fill="#21B2A6"/>
</svg>
