<svg width="24" height="24" viewBox="0 0 24 24" fill="none" xmlns="http://www.w3.org/2000/svg">
<g clip-path="url(#clip0)">
<path d="M20.4392 7.05882H17.647V3.7647C17.647 1.68885 15.9582 0 13.8823 0H13.647C13.0567 0 12.4978 0.136941 12 0.380188C11.5022 0.136941 10.9433 0 10.3529 0C8.27707 0 6.58823 1.68885 6.58823 3.7647V7.05882H3.56079L2.79072 24H21.2093L20.4392 7.05882ZM13.8516 1.35487C15.149 1.35487 16.2353 2.46729 16.2353 3.7647V7.05882H14.1176V3.7647C14.1176 2.88621 13.8143 2.07769 13.3081 1.43652C13.3081 1.43652 13.3859 1.35487 13.8516 1.35487ZM12 2.08649C12.4352 2.51374 12.7059 3.10809 12.7059 3.7647V7.05882H11.2941V3.7647C11.2941 3.10809 11.5647 2.51374 12 2.08649ZM7.99999 3.7647C7.99999 2.46729 9.05552 1.41176 10.3529 1.41176C10.468 1.41176 10.5811 1.42047 10.6919 1.43652C10.1856 2.07769 9.88234 2.88621 9.88234 3.7647V7.05882H7.99999V3.7647ZM4.90978 8.47059H6.58823V22.5882H4.26808L4.90978 8.47059ZM7.99999 22.5882V8.47059H9.88234V9.88235H11.2941V8.47059H16.2353V9.88235H17.647V8.47059H19.0902L19.7319 22.5882H7.99999Z" fill="#21B2A6"/>
</g>
<defs>
<clipPath id="clip0">
<rect width="24" height="24" fill="white"/>
</clipPath>
</defs>
</svg>
