<svg width="24" height="24" viewBox="0 0 24 24" fill="none" xmlns="http://www.w3.org/2000/svg">
<g clip-path="url(#clip0)">
<path d="M22.5907 11.2967H19.0577V10.5878C19.0577 9.66795 18.4673 8.88369 17.6457 8.59314L17.6458 5.64552C17.6457 5.64528 17.6455 5.64505 17.6454 5.64482C17.6452 5.4621 17.5742 5.28258 17.4398 5.14825L12.4976 0.20611C12.3703 0.0787681 12.1945 0 12.0002 0H1.40915C1.02075 0 0.705862 0.314885 0.705862 0.703287V23.2967C0.705862 23.6851 1.02075 24 1.40915 24L21.1786 24C21.567 24 21.8819 23.6851 21.8819 23.2967V15.5275H22.5907C22.9791 15.5275 23.294 15.2126 23.294 14.8242V12C23.294 11.6115 22.9792 11.2967 22.5907 11.2967ZM17.6511 11.2967H16.2336V10.5878C16.2336 10.197 16.5515 9.87907 16.9424 9.87907C17.3332 9.87907 17.6511 10.197 17.6511 10.5878V11.2967ZM12.7035 2.40112L15.2446 4.94228H12.7035V2.40112ZM2.11244 1.40657H11.2969V5.64557C11.2969 6.03397 11.6118 6.34885 12.0002 6.34885H16.2392L16.2391 8.59314C15.4175 8.88369 14.827 9.66795 14.827 10.5878V11.2967H11.294C10.9056 11.2967 10.5907 11.6115 10.5907 12V14.8241C10.5907 15.2125 10.9056 15.5274 11.294 15.5274H12.0028V22.5933H2.11244V1.40657ZM20.4754 22.5934H19.0578V18.7074C19.0578 18.319 18.7429 18.0041 18.3545 18.0041C17.9661 18.0041 17.6512 18.319 17.6512 18.7074V22.5934L16.2336 22.5934V18.7074C16.2336 18.319 15.9187 18.0041 15.5303 18.0041C15.1419 18.0041 14.827 18.319 14.827 18.7074V22.5934H13.4094V15.5275H20.4754V22.5934H20.4754ZM21.8875 14.1209H11.9973V12.7032H21.8874V14.1209H21.8875Z" fill="#21B2A6"/>
<path d="M4.23353 4.2308H8.46961C8.85801 4.2308 9.1729 3.91591 9.1729 3.52751C9.1729 3.1391 8.85801 2.82422 8.46961 2.82422H4.23353C3.84513 2.82422 3.53024 3.1391 3.53024 3.52751C3.53024 3.91591 3.84513 4.2308 4.23353 4.2308Z" fill="#21B2A6"/>
<path d="M4.23353 7.05501H8.46961C8.85801 7.05501 9.1729 6.74013 9.1729 6.35172C9.1729 5.96332 8.85801 5.64844 8.46961 5.64844H4.23353C3.84513 5.64844 3.53024 5.96332 3.53024 6.35172C3.53024 6.74013 3.84513 7.05501 4.23353 7.05501Z" fill="#21B2A6"/>
<path d="M4.23353 9.87898H8.46961C8.85801 9.87898 9.1729 9.5641 9.1729 9.1757C9.1729 8.7873 8.85801 8.47241 8.46961 8.47241H4.23353C3.84513 8.47241 3.53024 8.7873 3.53024 9.1757C3.53024 9.5641 3.84513 9.87898 4.23353 9.87898Z" fill="#21B2A6"/>
<path d="M8.4698 11.2966H4.23353C3.84513 11.2966 3.53024 11.6115 3.53024 11.9999C3.53024 12.3883 3.84513 12.7032 4.23353 12.7032H8.4698C8.8582 12.7032 9.17309 12.3883 9.17309 11.9999C9.17309 11.6115 8.8582 11.2966 8.4698 11.2966Z" fill="#21B2A6"/>
<path d="M8.4698 14.1208H4.23353C3.84513 14.1208 3.53024 14.4357 3.53024 14.8241C3.53024 15.2125 3.84513 15.5274 4.23353 15.5274H8.4698C8.8582 15.5274 9.17309 15.2125 9.17309 14.8241C9.17309 14.4357 8.8582 14.1208 8.4698 14.1208Z" fill="#21B2A6"/>
</g>
<defs>
<clipPath id="clip0">
<rect width="24" height="24" fill="white"/>
</clipPath>
</defs>
</svg>
