<svg width="24" height="24" viewBox="0 0 24 24" fill="none" xmlns="http://www.w3.org/2000/svg">
<g clip-path="url(#clip0)">
<path d="M24 11.1082H18.7031V9.70196H22.4075V3.09516H13.5925V9.70196H17.2969V11.1082H6.45628L3.6472 8.29913L5.53734 6.40899C5.5717 6.91777 5.78569 7.39144 6.14967 7.75542L7.34292 8.94868L10.326 5.9656L9.1328 4.77235C8.73436 4.37391 8.20467 4.15453 7.64123 4.15453C7.32113 4.15453 7.01194 4.22555 6.73148 4.3598L5.41978 3.0481L4.42542 4.04241L5.17031 4.7873L1.96519 7.99238V8.60583L4.46756 11.1082H0V12.5144H1.59248V20.9519H10.4076V12.5144H21.1875V20.9519H22.5938V12.5144H24V11.1082ZM14.9987 4.50141H21.0013V8.29571H14.9987V4.50141ZM8.13839 5.76666L8.33728 5.96555L7.34292 6.95991L7.14403 6.76107C7.01123 6.62827 6.93811 6.45169 6.93811 6.26386C6.93811 6.07608 7.01123 5.8995 7.14403 5.76671C7.27683 5.63391 7.45341 5.56078 7.64123 5.56078C7.82906 5.56074 8.00559 5.63386 8.13839 5.76666ZM2.99873 15.327H9.00131V16.7332H2.99873V15.327ZM2.99873 19.5457V18.1395H9.00131V19.5457H2.99873ZM9.00127 13.9207H2.99873V12.5145H9.00131V13.9207H9.00127Z" fill="#21B2A6"/>
</g>
<defs>
<clipPath id="clip0">
<rect width="24" height="24" fill="white"/>
</clipPath>
</defs>
</svg>
