<svg width="24" height="24" viewBox="0 0 24 24" fill="none" xmlns="http://www.w3.org/2000/svg">
<path d="M18.3529 10.0243V7.76471C18.3529 6.20781 17.0863 4.94118 15.5294 4.94118H14.1176V0H0V14.1176H4.94118V15.5294C4.94118 17.0863 6.20781 18.3529 7.76471 18.3529H10.0243C10.6801 21.571 13.5323 24 16.9412 24C20.8334 24 24 20.8334 24 16.9412C24 13.5323 21.571 10.6801 18.3529 10.0243ZM4.94118 7.76471V12.7059H1.41176V1.41176H12.7059V4.94118H7.76471C6.20781 4.94118 4.94118 6.20781 4.94118 7.76471ZM7.76471 16.9412C6.98626 16.9412 6.35294 16.3079 6.35294 15.5294V7.76471C6.35294 6.98626 6.98626 6.35294 7.76471 6.35294H15.5294C16.3079 6.35294 16.9412 6.98626 16.9412 7.76471V9.88235C13.0489 9.88235 9.88235 13.0489 9.88235 16.9412H7.76471ZM16.9412 22.5882C13.8029 22.5882 11.2941 20.0292 11.2941 16.9412C11.2941 13.6112 14.1872 10.9612 17.5601 11.3282C20.3838 11.6375 22.5882 14.0365 22.5882 16.9412C22.5882 20.055 20.055 22.5882 16.9412 22.5882Z" fill="#21B2A6"/>
</svg>
