<svg width="24" height="24" viewBox="0 0 24 24" fill="none" xmlns="http://www.w3.org/2000/svg">
<path d="M21.055 8.43374L23.9909 5.14626L14.8626 1.97197L11.9596 4.78461L9.22031 1.96851L0.0035625 5.13688L2.84902 8.43374L0 11.6963L3.07734 12.7664V19.2005L11.945 22.0313L20.8127 19.2005V12.7887L24 11.693L21.055 8.43374ZM15.218 3.5841L21.5393 5.78226L19.8927 7.62613L13.2717 5.46974L15.218 3.5841ZM17.8223 8.43046L11.945 10.3107L6.06778 8.43046L11.945 6.51632L17.8223 8.43046ZM2.42423 5.79154L8.83523 3.58762L10.6546 5.45797L4.00537 7.62346L2.42423 5.79154ZM2.4278 11.0519L4.00434 9.2466L10.6342 11.3676L8.75344 13.2516L2.4278 11.0519ZM11.945 20.5553L4.48111 18.1726V13.2545L9.12403 14.869L11.945 12.0432L14.7647 14.8678L19.4088 13.2713V18.1726H19.4089L11.945 20.5553ZM15.1378 13.2528L13.2558 11.3676L19.8937 9.24402L21.5303 11.0552L15.1378 13.2528Z" fill="#21B2A6"/>
</svg>
