<svg width="24" height="24" viewBox="0 0 24 24" fill="none" xmlns="http://www.w3.org/2000/svg">
<g clip-path="url(#clip0)">
<path d="M12 24C10.364 24 8.85443 23.2458 7.87408 21.9608C6.27264 22.1765 4.67157 21.6422 3.51471 20.4853C2.35785 19.3284 1.82373 17.7277 2.03943 16.1259C0.754211 15.1456 0 13.636 0 12C0 10.364 0.754211 8.85443 2.03943 7.87408C1.82373 6.27228 2.35785 4.67157 3.51471 3.51471C4.67157 2.35785 6.27228 1.82373 7.87408 2.03925C8.85443 0.754211 10.364 0 12 0C13.636 0 15.1456 0.754211 16.1259 2.03943C17.7277 1.82355 19.3284 2.35785 20.4853 3.51471C21.6422 4.67175 22.1763 6.27228 21.9608 7.87427C23.2458 8.85443 24 10.364 24 12C24 13.636 23.2458 15.1456 21.9606 16.1259C22.1763 17.7277 21.6422 19.3284 20.4853 20.4853C19.4969 21.4737 18.1844 22.0076 16.8241 22.0076C16.5923 22.0076 16.3592 21.9921 16.1259 21.9608C15.1456 23.2458 13.636 24 12 24ZM8.52393 20.3919L8.78943 20.8151C9.48816 21.9289 10.6884 22.5938 12 22.5938C13.3116 22.5938 14.5118 21.9289 15.2106 20.8151L15.4761 20.3919L15.9631 20.5034C17.2449 20.7969 18.5636 20.4183 19.491 19.491C20.4183 18.5636 20.7968 17.2447 20.5034 15.9631L20.3919 15.4761L20.8151 15.2106C21.9287 14.5118 22.5938 13.3116 22.5938 12C22.5938 10.6884 21.9287 9.48834 20.8151 8.78961L20.3919 8.52411L20.5034 8.03705C20.7968 6.75531 20.4185 5.4364 19.491 4.50916C18.5636 3.58173 17.2449 3.20306 15.9631 3.49658L15.4761 3.60809L15.2106 3.18494C14.5118 2.07129 13.3116 1.40625 12 1.40625C10.6884 1.40625 9.48816 2.07129 8.78943 3.18494L8.52393 3.60809L8.03687 3.49658C6.75531 3.20325 5.43658 3.58154 4.50897 4.50916C3.58173 5.4364 3.20325 6.75531 3.49658 8.03705L3.60809 8.52411L3.18494 8.78961C2.07129 9.48834 1.40625 10.6884 1.40625 12C1.40625 13.3116 2.07129 14.5118 3.18494 15.2106L3.60809 15.4761L3.49658 15.9631C3.20325 17.2447 3.58154 18.5636 4.50897 19.491C5.4364 20.4183 6.75531 20.7969 8.03687 20.5034L8.52393 20.3919Z" fill="#21B2A6"/>
<path d="M11.9813 17.4361L6.96882 12.3877C5.70685 11.1257 5.70685 9.06941 6.97065 7.80562C8.23426 6.54201 10.2905 6.54201 11.5543 7.80562L12 8.2513L12.4457 7.80562C13.7095 6.54201 15.7657 6.54201 17.0294 7.80562C18.2932 9.06941 18.2932 11.1257 17.0294 12.3893L12.4803 16.9384L11.9813 17.4361ZM9.26258 8.26338C8.79255 8.26338 8.32288 8.44228 7.96509 8.80006C7.24952 9.51546 7.24952 10.6795 7.96509 11.395L11.9855 15.4444L16.0349 11.395C16.7505 10.6795 16.7505 9.51546 16.0349 8.80006C15.3195 8.08467 14.1555 8.08467 13.4401 8.80006L12 10.2402L10.5599 8.80006C10.2023 8.44246 9.73224 8.26338 9.26258 8.26338Z" fill="#21B2A6"/>
</g>
<defs>
<clipPath id="clip0">
<rect width="24" height="24" fill="white"/>
</clipPath>
</defs>
</svg>
