<svg width="24" height="24" viewBox="0 0 24 24" fill="none" xmlns="http://www.w3.org/2000/svg">
<path d="M23.373 4.5105L19.215 3.8175L17.1435 0.3645C17.133 0.3465 17.1135 0.339 17.1015 0.3225C17.052 0.2535 16.992 0.1965 16.92 0.1455C16.8915 0.126 16.8675 0.1035 16.836 0.087C16.821 0.0795 16.8105 0.066 16.7955 0.0585C16.6995 0.0195 16.599 0 16.5 0H7.5015C7.4025 0 7.302 0.018 7.2045 0.06C7.1895 0.0675 7.179 0.081 7.164 0.0885C7.1325 0.105 7.107 0.1275 7.0785 0.1485C7.008 0.198 6.948 0.2535 6.9 0.321C6.888 0.3375 6.867 0.3465 6.855 0.3645L4.785 3.8175L0.627 4.5105C0.2655 4.5705 0 4.884 0 5.25V23.25C0 23.664 0.336 24 0.75 24H23.25C23.664 24 24 23.664 24 23.25V5.25C24 4.884 23.7345 4.5705 23.373 4.5105ZM15.3645 1.5L12.795 7.5H11.205L8.637 1.5H15.3645ZM7.5 8.25V22.5H1.5V5.886L5.3745 5.2395C5.592 5.2035 5.781 5.0745 5.895 4.8855L7.389 2.394L9.5745 7.5H8.25C7.836 7.5 7.5 7.836 7.5 8.25ZM22.5 22.5H9V9H13.29C13.425 9 13.545 8.955 13.6545 8.892C13.6815 8.877 13.704 8.8605 13.7295 8.841C13.8375 8.7615 13.929 8.6625 13.9815 8.538L16.611 2.394L18.105 4.8855C18.2175 5.0745 18.408 5.2035 18.6255 5.2395L22.5 5.886V22.5Z" fill="#21B2A6"/>
</svg>
