<svg width="36" height="32" viewBox="0 0 36 32" fill="none" xmlns="http://www.w3.org/2000/svg">
<g clip-path="url(#clip0)">
<path d="M6.59827 28.1277C6.59827 28.1187 6.60183 28.1009 6.60718 28.0742L7.50394 25.1379C7.5289 25.0576 7.58774 24.9952 7.68045 24.9524C7.77315 24.9097 7.87656 24.8865 7.99601 24.8865C8.11546 24.8865 8.22064 24.9079 8.31157 24.9524C8.40249 24.9952 8.46133 25.0576 8.48807 25.1379L9.3884 28.0742C9.39553 28.0991 9.39731 28.117 9.39731 28.1277C9.39731 28.2115 9.34561 28.2828 9.24042 28.3434C9.13524 28.404 9.02826 28.4343 8.91595 28.4343C8.77867 28.4343 8.69666 28.388 8.66992 28.2952L8.5059 27.6926H7.48968L7.32566 28.2952C7.3007 28.388 7.21869 28.4343 7.07963 28.4343C6.96731 28.4343 6.85856 28.404 6.75516 28.3434C6.65175 28.2828 6.59827 28.2097 6.59827 28.1277ZM7.64301 27.1168H8.34544L7.99422 25.826L7.64301 27.1168Z" fill="#2E3842"/>
<path d="M10.1568 28.2043V25.293C10.1568 25.1646 10.1925 25.0701 10.2656 25.0095C10.3386 24.9489 10.426 24.9186 10.533 24.9186C10.6774 24.9186 10.7879 24.94 10.8628 24.9845C10.9377 25.0273 11.0233 25.1307 11.116 25.2948L11.6116 26.1612L12.1072 25.2948C12.1999 25.1307 12.2837 25.0273 12.3604 24.9845C12.4353 24.9418 12.5458 24.9186 12.6902 24.9186C12.7954 24.9186 12.8845 24.9489 12.9576 25.0095C13.0307 25.0701 13.0664 25.1646 13.0664 25.293V28.2043C13.0664 28.2774 13.0289 28.3345 12.9558 28.3755C12.8827 28.4165 12.7936 28.4361 12.6902 28.4361C12.5868 28.4361 12.4994 28.4165 12.4263 28.3755C12.3532 28.3363 12.3158 28.2792 12.3158 28.2043V26.3983L11.8541 27.1881C11.7988 27.2808 11.7168 27.3272 11.6045 27.3272C11.4957 27.3272 11.4173 27.2808 11.3691 27.1881L10.9127 26.3502V28.2043C10.9127 28.2774 10.8753 28.3345 10.8022 28.3755C10.7291 28.4165 10.6399 28.4361 10.5383 28.4361C10.4349 28.4361 10.3476 28.4165 10.2745 28.3755C10.1925 28.3345 10.1568 28.2774 10.1568 28.2043Z" fill="#2E3842"/>
<path d="M13.8241 28.1277C13.8241 28.1187 13.8277 28.1009 13.833 28.0742L14.7298 25.1379C14.7547 25.0576 14.8136 24.9952 14.9063 24.9524C14.999 24.9097 15.1024 24.8865 15.2218 24.8865C15.3413 24.8865 15.4465 24.9079 15.5374 24.9524C15.6283 24.9952 15.6872 25.0576 15.7139 25.1379L16.6142 28.0742C16.6214 28.0991 16.6231 28.117 16.6231 28.1277C16.6231 28.2115 16.5714 28.2828 16.4662 28.3434C16.3611 28.404 16.2541 28.4343 16.1418 28.4343C16.0045 28.4343 15.9225 28.388 15.8957 28.2952L15.7317 27.6926H14.7155L14.5515 28.2952C14.5265 28.388 14.4445 28.4343 14.3055 28.4343C14.1931 28.4343 14.0844 28.404 13.981 28.3434C13.8776 28.2828 13.8241 28.2097 13.8241 28.1277ZM14.8688 27.1168H15.5713L15.2201 25.826L14.8688 27.1168Z" fill="#2E3842"/>
<path d="M17.3808 28.2043V25.1432C17.3808 25.0826 17.4022 25.0291 17.445 24.9845C17.4878 24.9399 17.543 24.9167 17.6108 24.9167H18.6074C19.3972 24.9167 19.7912 25.2608 19.7912 25.9472C19.7912 26.4482 19.5969 26.7727 19.2082 26.9242L19.7948 27.9886C19.8108 28.0117 19.8197 28.0403 19.8197 28.0759C19.8197 28.1686 19.7698 28.2578 19.6682 28.3416C19.5665 28.4254 19.4596 28.4664 19.3473 28.4664C19.2349 28.4664 19.1547 28.42 19.1066 28.3273L18.4469 27.0472H18.1296V28.2079C18.1296 28.2809 18.0921 28.338 18.0191 28.379C17.946 28.42 17.8568 28.4396 17.7552 28.4396C17.6518 28.4396 17.5644 28.42 17.4913 28.379C17.4182 28.3344 17.3808 28.2774 17.3808 28.2043ZM18.1314 26.466H18.6074C18.7482 26.466 18.857 26.4322 18.9301 26.3626C19.0032 26.2931 19.0406 26.179 19.0406 26.0185C19.0406 25.8581 19.0032 25.744 18.9301 25.6745C18.857 25.6049 18.7482 25.571 18.6074 25.571H18.1314V26.466Z" fill="#2E3842"/>
<path d="M20.6683 28.2044V25.1468C20.6683 25.0737 20.7004 25.0167 20.7646 24.9757C20.8288 24.9364 20.9055 24.915 20.9964 24.915H22.7097C22.7828 24.915 22.8398 24.9471 22.879 25.0113C22.9183 25.0755 22.9361 25.1504 22.9361 25.2377C22.9361 25.3304 22.9165 25.4089 22.8755 25.4731C22.8345 25.5372 22.7792 25.5693 22.7097 25.5693H21.4189V26.3823H22.141C22.2123 26.3823 22.2675 26.4108 22.3068 26.4697C22.3478 26.5267 22.3674 26.5962 22.3674 26.6765C22.3674 26.7514 22.3478 26.8155 22.3103 26.8744C22.2711 26.9314 22.2158 26.9617 22.141 26.9617H21.4189V27.78H22.7097C22.781 27.78 22.8363 27.8121 22.8755 27.8763C22.9147 27.9405 22.9361 28.0189 22.9361 28.1116C22.9361 28.199 22.9165 28.2739 22.879 28.3381C22.8398 28.4023 22.7846 28.4343 22.7097 28.4343H20.9964C20.9072 28.4343 20.8288 28.4147 20.7646 28.3737C20.7004 28.3345 20.6683 28.2775 20.6683 28.2044Z" fill="#2E3842"/>
<path d="M23.7455 28.2043V25.1432C23.7455 25.0701 23.783 25.013 23.8561 24.9738C23.9292 24.9346 24.0183 24.9167 24.1199 24.9167C24.2233 24.9167 24.3107 24.9364 24.3838 24.9738C24.4569 25.0112 24.4943 25.0683 24.4943 25.1432V27.7818H25.5926C25.6603 27.7818 25.7138 27.8138 25.7512 27.878C25.7887 27.9422 25.8083 28.0189 25.8083 28.1098C25.8083 28.2007 25.7887 28.2774 25.7512 28.3416C25.712 28.4057 25.6603 28.4378 25.5926 28.4378H24.0718C23.9827 28.4378 23.9042 28.4182 23.84 28.3772C23.7759 28.3344 23.7455 28.2774 23.7455 28.2043Z" fill="#2E3842"/>
<path d="M26.5035 27.3272V26.0507C26.5035 25.6585 26.6105 25.3714 26.8262 25.1896C27.042 25.006 27.3272 24.915 27.6838 24.915C28.0439 24.915 28.3309 25.006 28.5449 25.1896C28.7606 25.3732 28.8676 25.6603 28.8676 26.0507V27.3272C28.8676 27.7194 28.7606 28.0065 28.5449 28.1883C28.3292 28.3719 28.0421 28.4629 27.6838 28.4629C27.3272 28.4629 27.042 28.3719 26.8262 28.1883C26.6105 28.0047 26.5035 27.7194 26.5035 27.3272ZM27.2541 27.3272C27.2541 27.6481 27.3967 27.8086 27.682 27.8086C27.9708 27.8086 28.1152 27.6481 28.1152 27.3272V26.0507C28.1152 25.7298 27.9708 25.5693 27.682 25.5693C27.3967 25.5693 27.2541 25.7298 27.2541 26.0507V27.3272Z" fill="#2E3842"/>
<path d="M19.6343 12.3781C19.7324 12.0822 20.0372 11.9093 20.3421 11.9788C20.3421 11.9788 20.647 12.0501 21.1087 12.1589V12.1535V11.9093C21.1087 10.4153 19.8982 9.20471 18.406 9.20471H11.4404C9.94643 9.20471 8.73767 10.4153 8.73767 11.9093V22.8006C8.73767 22.8041 8.73945 22.8059 8.74302 22.8059H21.1034C21.1069 22.8059 21.1087 22.8041 21.1087 22.8006V13.5085L20.0283 13.1448C19.7056 13.0431 19.5291 12.6991 19.6343 12.3781Z" fill="#FFB500"/>
<path d="M21.1034 23.1857H8.74122C8.53263 23.1857 8.35791 23.011 8.35791 22.8024V11.9093C8.35791 10.2103 9.74138 8.82678 11.4404 8.82678H18.4042C20.1032 8.82678 21.4867 10.2103 21.4867 11.9093V12.1518C21.4867 12.3603 21.3173 12.5315 21.1069 12.5315C20.8965 12.5315 20.7272 12.3621 20.7272 12.1518V11.9093C20.7272 10.6274 19.6842 9.58448 18.4024 9.58448H11.4404C10.1586 9.58448 9.11561 10.6274 9.11561 11.9093V22.428H20.729V13.5085C20.729 13.2999 20.8983 13.1287 21.1087 13.1287C21.3191 13.1287 21.4884 13.2981 21.4884 13.5085V22.8024C21.4867 23.011 21.3119 23.1857 21.1034 23.1857Z" fill="#2E3842"/>
<path d="M24.9293 12.3425C23.9595 12.3425 23.1714 11.5545 23.1714 10.5847C23.1714 9.61479 23.9595 8.82678 24.9293 8.82678C25.8992 8.82678 26.6872 9.61479 26.6872 10.5847C26.6872 11.5545 25.8974 12.3425 24.9293 12.3425ZM24.9293 9.58449C24.3784 9.58449 23.9292 10.032 23.9292 10.5847C23.9292 11.1373 24.3766 11.5848 24.9293 11.5848C25.482 11.5848 25.9295 11.1373 25.9295 10.5847C25.9295 10.032 25.4802 9.58449 24.9293 9.58449Z" fill="#2E3842"/>
<path d="M23.9434 23.1857C23.7455 23.1857 23.5797 23.0324 23.5654 22.8345L23.0074 15.0025C22.9878 14.7137 22.797 14.4712 22.5225 14.3857L19.9053 13.5049C19.6593 13.4283 19.4542 13.2536 19.333 13.0182C19.2118 12.7829 19.1904 12.5137 19.2742 12.2605C19.4328 11.7774 19.9285 11.4975 20.4259 11.6098C24.7617 12.6278 25.5444 12.8203 25.7066 12.8667V12.8649C26.6141 13.1163 27.247 13.9471 27.247 14.8866V22.8077C27.247 23.0163 27.0776 23.1875 26.8672 23.1875C26.6569 23.1875 26.4875 23.0181 26.4875 22.8077V14.8848C26.4875 14.284 26.0828 13.7528 25.5034 13.5923C25.498 13.5905 25.4909 13.5887 25.4855 13.5869C25.2698 13.5263 22.2461 12.8132 20.2547 12.3461C20.1442 12.3229 20.0301 12.3853 19.9944 12.4959C19.9748 12.5529 19.9802 12.6153 20.0087 12.6688C20.0372 12.7223 20.0836 12.7633 20.1406 12.7811L22.7578 13.6618C23.3247 13.8401 23.7241 14.3464 23.7633 14.9472L24.3213 22.7774C24.3356 22.986 24.1787 23.1679 23.9701 23.1821C23.9612 23.1857 23.9523 23.1857 23.9434 23.1857Z" fill="#2E3842"/>
<path d="M25.4053 23.1857C25.2021 23.1857 25.0345 23.0252 25.0274 22.8202L24.8491 17.9014C24.842 17.6928 25.0042 17.5163 25.2146 17.5091C25.4267 17.5002 25.5997 17.6642 25.6068 17.8746L25.7851 22.7934C25.7922 23.002 25.63 23.1785 25.4196 23.1857C25.416 23.1857 25.4107 23.1857 25.4053 23.1857Z" fill="#2E3842"/>
<path d="M16.0205 10.5864H13.8241C13.6066 10.5864 13.4283 10.7629 13.4283 10.9822V13.1787C13.4283 13.3962 13.6048 13.5744 13.8241 13.5744H16.0205C16.238 13.5744 16.4163 13.3979 16.4163 13.1787V10.9822C16.4145 10.7629 16.238 10.5864 16.0205 10.5864Z" fill="white"/>
<path d="M16.0205 13.9007H13.824C13.4247 13.9007 13.1002 13.5763 13.1002 13.1769V10.9823C13.1002 10.5829 13.4247 10.2584 13.824 10.2584H16.0187C16.4181 10.2584 16.7425 10.5829 16.7425 10.9823V13.1769C16.7443 13.5763 16.4198 13.9007 16.0205 13.9007ZM13.824 10.9145C13.7866 10.9145 13.7581 10.9448 13.7581 10.9805V13.1751C13.7581 13.2126 13.7884 13.2411 13.824 13.2411H16.0187C16.0561 13.2411 16.0847 13.2108 16.0847 13.1751V10.9823C16.0847 10.9448 16.0544 10.9163 16.0187 10.9163H13.824V10.9145Z" fill="#2E3842"/>
<path d="M30.9998 32H4.60505C2.0663 32 0 29.9337 0 27.395V4.60683C0 2.0663 2.0663 0 4.60505 0H30.9981C33.5386 0 35.6049 2.0663 35.6049 4.60683V27.395C35.6049 29.9337 33.5386 32 30.9998 32ZM4.60505 0.757702C2.48348 0.757702 0.757702 2.48348 0.757702 4.60505V27.3932C0.757702 29.5147 2.48348 31.2405 4.60505 31.2405H30.9981C33.1196 31.2405 34.8454 29.5147 34.8454 27.3932V4.60683C34.8454 2.48526 33.1196 0.759485 30.9981 0.759485H4.60505V0.757702Z" fill="#2E3842"/>
<path d="M6.82288 6.87812V3.75283C6.82288 3.69221 6.84962 3.64407 6.90489 3.60842C6.96015 3.57276 7.02434 3.55493 7.09743 3.55493H8.81073C8.87491 3.55493 8.92305 3.58167 8.95692 3.63694C8.9908 3.69221 9.00684 3.75461 9.00684 3.82414C9.00684 3.9008 8.98901 3.96676 8.95336 4.02203C8.9177 4.0773 8.86956 4.10404 8.80895 4.10404H7.44687V5.06677H8.17783C8.23844 5.06677 8.28658 5.09173 8.32223 5.14165C8.35789 5.19157 8.37572 5.2504 8.37572 5.31815C8.37572 5.37877 8.35967 5.43403 8.3258 5.48395C8.29193 5.53387 8.24379 5.55883 8.17961 5.55883H7.44865V6.52691H8.81073C8.87135 6.52691 8.91948 6.55365 8.95514 6.60892C8.9908 6.66418 9.00862 6.72837 9.00862 6.80681C9.00862 6.87812 8.99258 6.94052 8.9587 6.99401C8.92483 7.04928 8.87669 7.07602 8.81251 7.07602H7.09921C7.02612 7.07602 6.96194 7.05819 6.90667 7.02253C6.84962 6.98688 6.82288 6.93874 6.82288 6.87812Z" fill="#2E3842"/>
<path d="M9.43115 6.00102V4.65855C9.43115 4.28059 9.53456 4.00069 9.73958 3.82419C9.94461 3.6459 10.212 3.55676 10.5436 3.55676C10.8806 3.55676 11.1552 3.64056 11.3691 3.80636C11.583 3.97394 11.69 4.19502 11.69 4.47135C11.69 4.5908 11.665 4.67103 11.6169 4.71382C11.5688 4.75661 11.4885 4.778 11.3762 4.778C11.1712 4.778 11.066 4.71204 11.0642 4.58011C11.0607 4.5391 11.0571 4.50166 11.0517 4.47135C11.0464 4.44105 11.0339 4.40004 11.0125 4.3519C10.9911 4.30199 10.9644 4.26098 10.9323 4.22711C10.9002 4.19323 10.8521 4.16471 10.7879 4.13975C10.7237 4.11479 10.6488 4.10409 10.5615 4.10409C10.2245 4.10409 10.0569 4.28951 10.0569 4.65855V6.00102C10.0569 6.37007 10.2281 6.55548 10.5722 6.55548C10.6756 6.55548 10.7611 6.53944 10.8289 6.50734C10.8984 6.47525 10.9483 6.4289 10.9787 6.37007C11.009 6.31123 11.0304 6.25775 11.041 6.2114C11.0517 6.16504 11.0589 6.10799 11.0624 6.04024C11.0714 5.90831 11.1748 5.84235 11.3709 5.84235C11.4832 5.84235 11.5634 5.86374 11.6133 5.90653C11.6633 5.94932 11.6882 6.03133 11.6882 6.149C11.6882 6.43781 11.5812 6.66958 11.3673 6.84252C11.1534 7.01545 10.877 7.10281 10.5365 7.10281C10.2067 7.10281 9.93926 7.01367 9.73423 6.83539C9.52921 6.6571 9.43115 6.38076 9.43115 6.00102Z" fill="#2E3842"/>
<path d="M12.2034 6.00097V4.6585C12.2034 4.27698 12.3051 3.99707 12.5083 3.82057C12.7115 3.64407 12.9861 3.55493 13.3284 3.55493C13.6725 3.55493 13.9453 3.64407 14.1521 3.82057C14.3589 3.99707 14.4605 4.27698 14.4605 4.6585V6.00097C14.4605 6.3825 14.3571 6.6624 14.1521 6.8389C13.947 7.0154 13.6725 7.10455 13.3284 7.10455C12.9843 7.10455 12.7115 7.0154 12.5083 6.8389C12.3068 6.6624 12.2034 6.3825 12.2034 6.00097ZM12.8292 6.00097C12.8292 6.37002 12.9968 6.55543 13.3302 6.55543C13.6671 6.55543 13.8347 6.37002 13.8347 6.00097V4.6585C13.8347 4.28946 13.6653 4.10404 13.3302 4.10404C12.9968 4.10404 12.8292 4.28946 12.8292 4.6585V6.00097Z" fill="#2E3842"/>
<path d="M15.1255 6.87817V3.74931C15.1255 3.69761 15.1469 3.65304 15.1897 3.61381C15.2325 3.57459 15.2895 3.55676 15.3608 3.55676H16.3289C16.6587 3.55676 16.9244 3.64412 17.124 3.81884C17.3237 3.99356 17.4218 4.26811 17.4218 4.63894V4.66747C17.4218 5.04364 17.3184 5.3182 17.1116 5.4947C16.9048 5.6712 16.6302 5.76034 16.2915 5.76034H15.753V6.87639C15.753 6.93701 15.721 6.98514 15.6586 7.0208C15.5962 7.05646 15.5231 7.07428 15.4393 7.07428C15.3519 7.07428 15.2788 7.05646 15.2182 7.0208C15.1576 6.98514 15.1255 6.93879 15.1255 6.87817ZM15.7513 5.27006H16.2897C16.4501 5.27006 16.5749 5.22371 16.6623 5.131C16.7496 5.03829 16.7942 4.89923 16.7942 4.71738V4.66033C16.7942 4.4767 16.7496 4.33942 16.6623 4.24672C16.5731 4.15401 16.4501 4.10766 16.2897 4.10766H15.7513V5.27006Z" fill="#2E3842"/>
<path d="M17.8978 6.00097V4.6585C17.8978 4.27698 17.9994 3.99707 18.2027 3.82057C18.4059 3.64407 18.6805 3.55493 19.0228 3.55493C19.3669 3.55493 19.6397 3.64407 19.8465 3.82057C20.0533 3.99707 20.1549 4.27698 20.1549 4.6585V6.00097C20.1549 6.3825 20.0515 6.6624 19.8465 6.8389C19.6414 7.0154 19.3669 7.10455 19.0228 7.10455C18.6787 7.10455 18.4059 7.0154 18.2027 6.8389C18.0012 6.6624 17.8978 6.3825 17.8978 6.00097ZM18.5236 6.00097C18.5236 6.37002 18.6912 6.55543 19.0246 6.55543C19.3615 6.55543 19.5291 6.37002 19.5291 6.00097V4.6585C19.5291 4.28946 19.3597 4.10404 19.0246 4.10404C18.6912 4.10404 18.5236 4.28946 18.5236 4.6585V6.00097Z" fill="#2E3842"/>
<path d="M20.8199 6.87817V3.75287C20.8199 3.68869 20.8502 3.64056 20.9108 3.60668C20.9714 3.57281 21.0463 3.55676 21.1319 3.55676C21.2478 3.55676 21.3351 3.57816 21.3957 3.61916C21.4564 3.66017 21.5241 3.75109 21.5972 3.88837L22.5261 5.68368V3.74931C22.5261 3.68513 22.5564 3.63699 22.617 3.6049C22.6776 3.57281 22.7525 3.55676 22.8381 3.55676C22.9236 3.55676 22.9985 3.57281 23.0591 3.6049C23.1197 3.63699 23.15 3.68513 23.15 3.74931V6.87817C23.15 6.93879 23.118 6.98693 23.0556 7.02258C22.9932 7.05824 22.9201 7.07607 22.8363 7.07607C22.6669 7.07607 22.5457 7.0101 22.4761 6.87817L21.4403 4.9438V6.87817C21.4403 6.93879 21.4082 6.98693 21.3458 7.02258C21.2834 7.05824 21.2103 7.07607 21.1265 7.07607C21.0392 7.07607 20.9661 7.05824 20.9055 7.02258C20.8448 6.98693 20.8199 6.93879 20.8199 6.87817Z" fill="#2E3842"/>
<path d="M23.626 3.8277C23.626 3.75639 23.6421 3.69221 23.676 3.63694C23.7098 3.58167 23.758 3.55493 23.8221 3.55493H25.8581C25.9223 3.55493 25.9705 3.58167 26.0043 3.63694C26.0382 3.69221 26.0542 3.75461 26.0542 3.8277C26.0542 3.90258 26.0364 3.96677 26.0008 4.02203C25.9651 4.0773 25.917 4.10404 25.8564 4.10404H25.1539V6.87634C25.1539 6.93696 25.1218 6.98688 25.0594 7.02075C24.997 7.05641 24.9239 7.07424 24.8401 7.07424C24.7528 7.07424 24.6797 7.05641 24.6191 7.02075C24.5585 6.9851 24.5281 6.93696 24.5281 6.87634V4.10404H23.8204C23.7597 4.10404 23.7116 4.0773 23.676 4.02382C23.6439 3.97211 23.626 3.90615 23.626 3.8277Z" fill="#2E3842"/>
<path d="M26.434 6.00097V4.6585C26.434 4.27698 26.5356 3.99707 26.7389 3.82057C26.9421 3.64407 27.2167 3.55493 27.559 3.55493C27.9031 3.55493 28.1758 3.64407 28.3827 3.82057C28.5895 3.99707 28.6911 4.27698 28.6911 4.6585V6.00097C28.6911 6.3825 28.5877 6.6624 28.3827 6.8389C28.1776 7.0154 27.9031 7.10455 27.559 7.10455C27.2149 7.10455 26.9421 7.0154 26.7389 6.8389C26.5356 6.6624 26.434 6.3825 26.434 6.00097ZM27.0598 6.00097C27.0598 6.37002 27.2274 6.55543 27.5608 6.55543C27.8977 6.55543 28.0653 6.37002 28.0653 6.00097V4.6585C28.0653 4.28946 27.8959 4.10404 27.5608 4.10404C27.2274 4.10404 27.0598 4.28946 27.0598 4.6585V6.00097Z" fill="#2E3842"/>
</g>
<defs>
<clipPath id="clip0">
<rect width="35.6049" height="32" fill="white"/>
</clipPath>
</defs>
</svg>
