<svg width="24" height="24" viewBox="0 0 24 24" fill="none" xmlns="http://www.w3.org/2000/svg">
<path d="M19.9395 14.6895L16.5 18.129V9C16.5 7.4087 15.8679 5.88258 14.7426 4.75736C13.6174 3.63214 12.0913 3 10.5 3C8.9087 3 7.38258 3.63214 6.25736 4.75736C5.13214 5.88258 4.5 7.4087 4.5 9V21H6V9C6 7.80653 6.47411 6.66193 7.31802 5.81802C8.16193 4.97411 9.30653 4.5 10.5 4.5C11.6935 4.5 12.8381 4.97411 13.682 5.81802C14.5259 6.66193 15 7.80653 15 9V18.129L11.5605 14.6895L10.5 15.75L15.75 21L21 15.75L19.9395 14.6895Z" fill="#21B2A6"/>
</svg>
